<mxfile host="app.diagrams.net" modified="2024-06-20T12:25:22.432Z" agent="Mozilla/5.0 (Windows NT 10.0; Win64; x64) AppleWebKit/537.36 (KHTML, like Gecko) Chrome/126.0.0.0 Safari/537.36 Edg/126.0.0.0" etag="GW8cA_1YkkqAMkFXaRz5" version="24.5.5" type="github">
  <diagram name="第 1 页" id="-XGt41P_KYGz5pX-UrJc">
    <mxGraphModel dx="2538" dy="639" grid="1" gridSize="10" guides="1" tooltips="1" connect="1" arrows="1" fold="1" page="1" pageScale="1" pageWidth="827" pageHeight="1169" math="0" shadow="0">
      <root>
        <mxCell id="0" />
        <mxCell id="1" parent="0" />
        <mxCell id="pmVqGm87CQ88HaM_0eJG-1" value="data(16992，307，3)&amp;nbsp; 3：(flow,&amp;nbsp; tod,&amp;nbsp; dow)" style="text;strokeColor=none;align=center;fillColor=none;html=1;verticalAlign=middle;whiteSpace=wrap;rounded=0;" vertex="1" parent="1">
          <mxGeometry x="-695" y="90" width="240" height="30" as="geometry" />
        </mxCell>
        <mxCell id="pmVqGm87CQ88HaM_0eJG-2" value="train_index (10181,&amp;nbsp; 3)&amp;nbsp; 3 : (历史时间步的起点，当前时间步的起点，未来时间步骤的终点)" style="text;strokeColor=none;align=center;fillColor=none;html=1;verticalAlign=middle;whiteSpace=wrap;rounded=0;" vertex="1" parent="1">
          <mxGeometry x="-695" y="140" width="270" height="30" as="geometry" />
        </mxCell>
        <mxCell id="pmVqGm87CQ88HaM_0eJG-3" value="x_train_index (10181,&amp;nbsp; 12)" style="text;strokeColor=none;align=center;fillColor=none;html=1;verticalAlign=middle;whiteSpace=wrap;rounded=0;" vertex="1" parent="1">
          <mxGeometry x="-695" y="200" width="190" height="30" as="geometry" />
        </mxCell>
        <mxCell id="pmVqGm87CQ88HaM_0eJG-4" value="his=12&lt;div&gt;pred=12&lt;/div&gt;&lt;div&gt;batch_size=16&lt;/div&gt;" style="shape=note;whiteSpace=wrap;html=1;backgroundOutline=1;fontColor=#000000;darkOpacity=0.05;fillColor=#FFF9B2;strokeColor=none;fillStyle=solid;direction=west;gradientDirection=north;gradientColor=#FFF2A1;shadow=1;size=20;pointerEvents=1;" vertex="1" parent="1">
          <mxGeometry x="385" y="10" width="90" height="70" as="geometry" />
        </mxCell>
        <mxCell id="pmVqGm87CQ88HaM_0eJG-5" value="x_train(10181 ,12,&amp;nbsp; 307, 3)&amp;nbsp; &amp;nbsp;3 : (flow, tod,&amp;nbsp; dow)&lt;div&gt;y_train(10181 ,12,&amp;nbsp; 307, 3)&lt;br&gt;&lt;/div&gt;" style="text;strokeColor=none;align=center;fillColor=none;html=1;verticalAlign=middle;whiteSpace=wrap;rounded=0;" vertex="1" parent="1">
          <mxGeometry x="-710" y="250" width="285" height="30" as="geometry" />
        </mxCell>
        <mxCell id="pmVqGm87CQ88HaM_0eJG-6" value="x_batch(16,&amp;nbsp; 12,&amp;nbsp; 307,&amp;nbsp; 3)&amp;nbsp; &amp;nbsp;3 : (flow,&amp;nbsp; tod,, dow)" style="text;strokeColor=none;align=center;fillColor=none;html=1;verticalAlign=middle;whiteSpace=wrap;rounded=0;" vertex="1" parent="1">
          <mxGeometry x="385" y="140" width="260" height="30" as="geometry" />
        </mxCell>
        <mxCell id="pmVqGm87CQ88HaM_0eJG-7" value="" style="endArrow=classic;html=1;rounded=0;" edge="1" parent="1">
          <mxGeometry width="50" height="50" relative="1" as="geometry">
            <mxPoint x="514.71" y="170" as="sourcePoint" />
            <mxPoint x="514.71" y="227" as="targetPoint" />
          </mxGeometry>
        </mxCell>
        <mxCell id="pmVqGm87CQ88HaM_0eJG-8" value="tod (16,&amp;nbsp; 12,&amp;nbsp; 307)" style="text;strokeColor=none;align=center;fillColor=none;html=1;verticalAlign=middle;whiteSpace=wrap;rounded=0;" vertex="1" parent="1">
          <mxGeometry x="-250" y="140" width="110" height="30" as="geometry" />
        </mxCell>
        <mxCell id="pmVqGm87CQ88HaM_0eJG-9" value="dow (16,&amp;nbsp; 12,&amp;nbsp; 307)" style="text;strokeColor=none;align=center;fillColor=none;html=1;verticalAlign=middle;whiteSpace=wrap;rounded=0;" vertex="1" parent="1">
          <mxGeometry x="79" y="140" width="110" height="30" as="geometry" />
        </mxCell>
        <mxCell id="pmVqGm87CQ88HaM_0eJG-10" value="Linear(input_dim=3, input_embedding_dim=24)" style="text;strokeColor=none;align=center;fillColor=none;html=1;verticalAlign=middle;whiteSpace=wrap;rounded=0;" vertex="1" parent="1">
          <mxGeometry x="530" y="180" width="290" height="30" as="geometry" />
        </mxCell>
        <mxCell id="pmVqGm87CQ88HaM_0eJG-24" value="" style="edgeStyle=orthogonalEdgeStyle;rounded=0;orthogonalLoop=1;jettySize=auto;html=1;" edge="1" parent="1" source="pmVqGm87CQ88HaM_0eJG-11">
          <mxGeometry relative="1" as="geometry">
            <mxPoint x="515.0344827586209" y="290" as="targetPoint" />
          </mxGeometry>
        </mxCell>
        <mxCell id="pmVqGm87CQ88HaM_0eJG-11" value="x(16,&amp;nbsp; 12,&amp;nbsp; 307,&amp;nbsp; 24)&amp;nbsp;&amp;nbsp;" style="text;strokeColor=none;align=center;fillColor=none;html=1;verticalAlign=middle;whiteSpace=wrap;rounded=0;" vertex="1" parent="1">
          <mxGeometry x="407.5" y="223" width="215" height="30" as="geometry" />
        </mxCell>
        <mxCell id="pmVqGm87CQ88HaM_0eJG-12" value="" style="endArrow=classic;html=1;rounded=0;" edge="1" parent="1">
          <mxGeometry width="50" height="50" relative="1" as="geometry">
            <mxPoint x="-195.42000000000002" y="166" as="sourcePoint" />
            <mxPoint x="-195.42000000000002" y="223" as="targetPoint" />
          </mxGeometry>
        </mxCell>
        <mxCell id="pmVqGm87CQ88HaM_0eJG-13" value="tod_embedding(tod * self.steps_per_day)" style="text;strokeColor=none;align=center;fillColor=none;html=1;verticalAlign=middle;whiteSpace=wrap;rounded=0;" vertex="1" parent="1">
          <mxGeometry x="-190" y="180" width="230" height="30" as="geometry" />
        </mxCell>
        <mxCell id="pmVqGm87CQ88HaM_0eJG-14" value="tod_emb(16,&amp;nbsp; 12, 307,&amp;nbsp; 24)" style="text;strokeColor=none;align=center;fillColor=none;html=1;verticalAlign=middle;whiteSpace=wrap;rounded=0;" vertex="1" parent="1">
          <mxGeometry x="-270" y="223" width="160" height="30" as="geometry" />
        </mxCell>
        <mxCell id="pmVqGm87CQ88HaM_0eJG-18" value="" style="endArrow=classic;html=1;rounded=0;" edge="1" parent="1">
          <mxGeometry width="50" height="50" relative="1" as="geometry">
            <mxPoint x="124.57999999999998" y="163" as="sourcePoint" />
            <mxPoint x="124.57999999999998" y="220" as="targetPoint" />
          </mxGeometry>
        </mxCell>
        <mxCell id="pmVqGm87CQ88HaM_0eJG-19" value="tod_embedding(dow.long())" style="text;strokeColor=none;align=center;fillColor=none;html=1;verticalAlign=middle;whiteSpace=wrap;rounded=0;" vertex="1" parent="1">
          <mxGeometry x="120" y="170" width="230" height="30" as="geometry" />
        </mxCell>
        <mxCell id="pmVqGm87CQ88HaM_0eJG-20" value="dow_emb(16,&amp;nbsp; 12, 307,&amp;nbsp; 24)" style="text;strokeColor=none;align=center;fillColor=none;html=1;verticalAlign=middle;whiteSpace=wrap;rounded=0;" vertex="1" parent="1">
          <mxGeometry x="50" y="220" width="160" height="30" as="geometry" />
        </mxCell>
        <UserObject label="adp_emb = self.adaptive_embedding.expand(&lt;br&gt;&lt;br&gt;                size=(batch_size, *self.adaptive_embedding.shape)&lt;br&gt;&lt;br&gt;            )&lt;div&gt;(batch=16,&amp;nbsp; in_steps=12, num_nodes=307, adaptive_embedding_dim=80)&lt;br&gt;&lt;/div&gt;" link="adp_emb = self.adaptive_embedding.expand(&#xa;                size=(batch_size, *self.adaptive_embedding.shape)&#xa;            )" id="pmVqGm87CQ88HaM_0eJG-21">
          <mxCell style="text;whiteSpace=wrap;html=1;" vertex="1" parent="1">
            <mxGeometry x="860" y="140" width="290" height="110" as="geometry" />
          </mxCell>
        </UserObject>
        <mxCell id="pmVqGm87CQ88HaM_0eJG-28" value="x = cat(x, tod, dow, adp_emb)" style="text;strokeColor=none;align=center;fillColor=none;html=1;verticalAlign=middle;whiteSpace=wrap;rounded=0;" vertex="1" parent="1">
          <mxGeometry x="540" y="253" width="170" height="30" as="geometry" />
        </mxCell>
        <mxCell id="pmVqGm87CQ88HaM_0eJG-35" style="edgeStyle=orthogonalEdgeStyle;rounded=0;orthogonalLoop=1;jettySize=auto;html=1;" edge="1" parent="1" source="pmVqGm87CQ88HaM_0eJG-29">
          <mxGeometry relative="1" as="geometry">
            <mxPoint x="515" y="370" as="targetPoint" />
          </mxGeometry>
        </mxCell>
        <mxCell id="pmVqGm87CQ88HaM_0eJG-29" value="x(16, 12, 307, 152)" style="text;strokeColor=none;align=center;fillColor=none;html=1;verticalAlign=middle;whiteSpace=wrap;rounded=0;" vertex="1" parent="1">
          <mxGeometry x="440" y="290" width="150" height="30" as="geometry" />
        </mxCell>
        <mxCell id="pmVqGm87CQ88HaM_0eJG-32" value="attn_layers_t(x, dim=1)" style="text;strokeColor=none;align=center;fillColor=none;html=1;verticalAlign=middle;whiteSpace=wrap;rounded=0;" vertex="1" parent="1">
          <mxGeometry x="540" y="330" width="130" height="30" as="geometry" />
        </mxCell>
        <mxCell id="pmVqGm87CQ88HaM_0eJG-37" style="edgeStyle=orthogonalEdgeStyle;rounded=0;orthogonalLoop=1;jettySize=auto;html=1;" edge="1" parent="1" source="pmVqGm87CQ88HaM_0eJG-38">
          <mxGeometry relative="1" as="geometry">
            <mxPoint x="515" y="450" as="targetPoint" />
          </mxGeometry>
        </mxCell>
        <mxCell id="pmVqGm87CQ88HaM_0eJG-38" value="x(16, 12, 307, 152)" style="text;strokeColor=none;align=center;fillColor=none;html=1;verticalAlign=middle;whiteSpace=wrap;rounded=0;" vertex="1" parent="1">
          <mxGeometry x="440" y="370" width="150" height="30" as="geometry" />
        </mxCell>
        <mxCell id="pmVqGm87CQ88HaM_0eJG-39" value="attn_layers_s(x, dim=2)" style="text;strokeColor=none;align=center;fillColor=none;html=1;verticalAlign=middle;whiteSpace=wrap;rounded=0;" vertex="1" parent="1">
          <mxGeometry x="540" y="400" width="130" height="30" as="geometry" />
        </mxCell>
        <mxCell id="pmVqGm87CQ88HaM_0eJG-41" value="x(16, 12, 307, 152)" style="text;strokeColor=none;align=center;fillColor=none;html=1;verticalAlign=middle;whiteSpace=wrap;rounded=0;" vertex="1" parent="1">
          <mxGeometry x="440" y="450" width="150" height="30" as="geometry" />
        </mxCell>
        <mxCell id="pmVqGm87CQ88HaM_0eJG-43" value="" style="endArrow=classic;html=1;rounded=0;" edge="1" parent="1">
          <mxGeometry width="50" height="50" relative="1" as="geometry">
            <mxPoint x="572.5" y="470" as="sourcePoint" />
            <mxPoint x="650" y="470" as="targetPoint" />
          </mxGeometry>
        </mxCell>
        <mxCell id="pmVqGm87CQ88HaM_0eJG-45" value="(16, 307, 12, 152)" style="text;whiteSpace=wrap;html=1;" vertex="1" parent="1">
          <mxGeometry x="650" y="460" width="100" height="30" as="geometry" />
        </mxCell>
        <mxCell id="pmVqGm87CQ88HaM_0eJG-46" value="" style="endArrow=classic;html=1;rounded=0;" edge="1" parent="1">
          <mxGeometry width="50" height="50" relative="1" as="geometry">
            <mxPoint x="750" y="470" as="sourcePoint" />
            <mxPoint x="827.5" y="470" as="targetPoint" />
          </mxGeometry>
        </mxCell>
        <mxCell id="pmVqGm87CQ88HaM_0eJG-47" value="(16, 307, 1824)" style="text;whiteSpace=wrap;html=1;" vertex="1" parent="1">
          <mxGeometry x="827.5" y="460" width="92.5" height="30" as="geometry" />
        </mxCell>
        <mxCell id="pmVqGm87CQ88HaM_0eJG-48" style="edgeStyle=orthogonalEdgeStyle;rounded=0;orthogonalLoop=1;jettySize=auto;html=1;" edge="1" parent="1">
          <mxGeometry relative="1" as="geometry">
            <mxPoint x="870" y="530" as="targetPoint" />
            <mxPoint x="870" y="480" as="sourcePoint" />
          </mxGeometry>
        </mxCell>
        <mxCell id="pmVqGm87CQ88HaM_0eJG-49" value="out_proj &amp;amp; reshape" style="text;strokeColor=none;align=center;fillColor=none;html=1;verticalAlign=middle;whiteSpace=wrap;rounded=0;" vertex="1" parent="1">
          <mxGeometry x="750" y="490" width="110" height="30" as="geometry" />
        </mxCell>
        <mxCell id="pmVqGm87CQ88HaM_0eJG-50" value="(16, 12, 307, 1)" style="text;whiteSpace=wrap;html=1;" vertex="1" parent="1">
          <mxGeometry x="823.75" y="530" width="100" height="30" as="geometry" />
        </mxCell>
      </root>
    </mxGraphModel>
  </diagram>
</mxfile>
